<?xml version="1.0" standalone="no"?>
<!DOCTYPE svg PUBLIC "-//W3C//DTD SVG 20010904//EN"
 "http://www.w3.org/TR/2001/REC-SVG-20010904/DTD/svg10.dtd">
<svg version="1.0" xmlns="http://www.w3.org/2000/svg"
 width="637.000000pt" height="637.000000pt" viewBox="0 0 637.000000 637.000000"
 preserveAspectRatio="xMidYMid meet">
<metadata>
Created by potrace 1.14, written by Peter Selinger 2001-2017
</metadata>
<g transform="translate(0.000000,637.000000) scale(0.100000,-0.100000)"
fill="#000000" stroke="none">
<path d="M3620 5271 c-14 -4 -58 -6 -98 -5 -41 2 -93 -3 -119 -11 -31 -9 -51
-11 -58 -5 -7 6 -32 13 -56 16 -34 5 -54 1 -86 -16 -40 -21 -121 -25 -139 -7
-4 3 -14 3 -23 -1 -9 -4 -35 -7 -58 -7 -24 0 -43 -2 -43 -5 0 -3 -9 -6 -19 -6
-11 0 -18 3 -16 7 6 9 -129 6 -136 -4 -3 -4 -27 -1 -53 7 -49 15 -64 13 -103
-12 -12 -8 -48 -15 -79 -16 -35 -2 -61 -8 -68 -17 -7 -9 -27 -13 -58 -12 -27
1 -48 -3 -48 -8 0 -6 -4 -7 -10 -4 -5 3 -10 1 -10 -4 0 -6 -13 -11 -29 -11
-16 0 -36 -6 -43 -12 -14 -14 -34 -15 -61 -3 -10 4 -23 2 -32 -5 -8 -6 -18 -9
-24 -6 -5 3 -11 1 -13 -6 -4 -11 -43 -17 -130 -19 -10 0 -18 -5 -18 -11 0 -6
-3 -8 -7 -5 -3 4 -12 2 -20 -5 -11 -9 -12 -7 -7 8 5 18 5 18 -10 0 -9 -11 -16
-16 -16 -10 -1 5 -9 -1 -19 -14 -13 -15 -21 -18 -24 -10 -3 9 -8 10 -18 3 -8
-6 -26 -10 -41 -9 -15 0 -25 -2 -23 -6 11 -17 -23 -30 -50 -20 -22 8 -33 7
-53 -7 -61 -44 -78 -53 -97 -52 -29 2 -65 -12 -65 -24 0 -6 -3 -7 -7 -4 -3 4
-12 2 -19 -4 -8 -6 -21 -9 -29 -5 -11 4 -14 2 -9 -6 5 -8 2 -9 -9 -5 -9 3 -19
2 -22 -4 -4 -5 -11 -7 -16 -4 -5 4 -9 0 -9 -9 0 -8 -17 -20 -37 -27 -21 -7
-55 -23 -75 -37 -20 -13 -41 -21 -47 -18 -5 4 -26 -9 -46 -29 -20 -19 -41 -35
-46 -35 -5 0 -9 -4 -9 -9 0 -5 -10 -11 -23 -13 -12 -2 -21 -7 -19 -12 2 -5 -9
-17 -25 -27 -15 -10 -24 -19 -20 -19 4 0 -8 -15 -27 -34 -19 -19 -31 -37 -28
-40 3 -3 -2 -6 -10 -6 -9 0 -19 -7 -22 -16 -4 -9 -9 -14 -13 -11 -7 7 -43 -36
-43 -52 0 -6 -5 -11 -11 -11 -5 0 -7 -4 -4 -10 3 -5 1 -10 -5 -10 -6 0 -10 -6
-8 -13 3 -14 -42 -87 -53 -87 -4 0 -13 -20 -20 -45 -7 -25 -17 -45 -21 -45 -4
0 -7 -3 -6 -7 4 -17 -14 -73 -23 -73 -6 0 -7 -4 -4 -10 3 -5 1 -10 -6 -10 -7
0 -9 -3 -6 -7 4 -3 2 -12 -5 -20 -6 -7 -8 -16 -5 -20 4 -3 2 -12 -4 -20 -21
-24 -32 -147 -16 -178 9 -18 9 -19 -8 -5 -17 14 -17 14 -1 -19 11 -20 13 -30
5 -25 -9 5 -10 2 -6 -10 4 -9 0 -27 -8 -39 -9 -14 -11 -27 -6 -36 5 -8 7 -20
4 -28 -3 -7 1 -13 8 -13 11 0 11 -3 -1 -10 -13 -8 -13 -10 -1 -10 12 0 11 -3
-2 -12 -11 -9 -15 -21 -11 -36 4 -15 10 -19 18 -13 11 9 121 -27 111 -37 -2
-3 3 -11 13 -19 9 -8 11 -12 5 -8 -9 4 -11 1 -7 -9 3 -9 9 -16 13 -16 4 0 4
-27 0 -59 -5 -43 -13 -66 -30 -83 -13 -14 -33 -36 -44 -51 -11 -15 -25 -27
-31 -27 -19 0 -44 -47 -44 -83 0 -23 5 -34 15 -34 8 0 15 3 15 6 0 6 40 55 77
94 27 28 41 14 20 -20 -4 -7 -1 -15 7 -20 8 -4 15 -10 15 -13 0 -3 3 -13 7
-23 5 -13 -3 -26 -29 -48 -41 -35 -43 -45 -62 -250 l-6 -66 30 -13 c20 -8 31
-19 31 -33 0 -11 -3 -18 -6 -14 -4 3 -14 -3 -23 -14 -9 -11 -29 -22 -46 -24
-69 -12 -89 -18 -105 -34 -38 -36 -46 -116 -19 -197 12 -36 15 -63 9 -87 -4
-20 -4 -39 1 -44 5 -5 -6 -25 -26 -46 -31 -33 -42 -62 -35 -92 15 -63 17 -75
9 -75 -5 0 -9 -6 -9 -13 0 -7 -9 -20 -20 -30 -20 -16 -20 -56 0 -97 10 -20 1
-42 -13 -33 -7 3 -9 3 -5 -2 4 -4 2 -22 -5 -39 -17 -41 -14 -65 12 -120 11
-25 21 -55 21 -65 0 -11 4 -22 9 -25 4 -3 11 -19 15 -36 3 -17 10 -29 14 -26
5 3 7 -5 5 -18 -9 -44 38 -118 134 -214 51 -50 97 -92 102 -92 5 0 14 -7 21
-15 7 -9 15 -13 17 -11 4 4 28 -13 58 -41 7 -7 15 -9 19 -6 3 4 6 1 6 -6 0 -7
4 -9 10 -6 5 3 10 1 10 -4 0 -6 9 -11 19 -11 11 0 22 -4 25 -9 3 -5 18 -12 33
-16 15 -3 39 -15 55 -26 15 -11 28 -18 28 -15 0 3 11 1 25 -4 14 -5 37 -12 50
-15 14 -3 37 -7 52 -10 14 -3 34 -10 45 -16 10 -5 18 -7 18 -5 0 3 12 1 28 -5
34 -13 116 -30 162 -34 19 -2 35 -4 35 -5 0 -2 14 -3 30 -4 17 -1 36 -6 43
-10 13 -8 21 -9 107 -21 28 -3 68 -11 91 -16 22 -6 60 -12 85 -14 24 -2 44 -4
44 -5 0 -1 23 -3 50 -5 28 -2 68 -6 90 -9 22 -3 58 -7 80 -10 38 -5 495 -11
505 -6 3 1 70 3 150 5 80 2 168 5 196 6 28 1 56 -1 61 -4 6 -4 13 -4 17 0 3 4
99 8 214 9 114 1 234 5 267 8 33 3 83 8 110 11 28 3 100 7 160 10 61 3 121 7
134 10 13 2 65 5 115 6 50 1 96 5 102 10 7 6 36 12 65 14 30 2 90 7 134 10 44
4 127 17 185 30 58 13 125 27 150 30 51 7 84 13 88 15 1 2 7 4 12 5 6 1 12 4
15 5 3 1 10 4 15 5 6 1 11 3 13 5 3 3 93 20 127 24 9 1 21 5 28 10 6 4 12 4
12 0 0 -3 6 -2 13 4 11 9 77 31 116 38 8 1 17 6 20 11 3 5 13 8 21 8 8 -1 24
5 35 12 11 7 26 13 35 13 8 0 28 14 44 30 16 16 33 27 37 24 5 -3 9 0 9 7 0 7
3 10 6 6 6 -6 20 3 52 35 9 9 23 18 31 20 7 2 24 12 37 23 76 64 94 81 94 90
0 6 9 16 20 23 11 7 20 18 20 25 0 7 13 25 28 40 35 33 71 103 77 149 6 38 13
73 15 73 3 0 11 39 15 73 2 20 0 32 -8 32 -7 0 -6 4 3 10 12 7 13 13 3 28 -8
14 -9 22 -1 30 8 8 7 16 -3 28 -9 12 -10 15 -1 10 8 -5 12 -1 12 11 0 11 -6
25 -12 32 -10 11 -10 13 0 7 13 -8 18 35 5 48 -9 9 -13 32 -14 85 -1 36 4 48
27 68 15 13 29 30 31 38 7 35 9 41 17 53 18 29 11 84 -13 104 -21 17 -24 27
-23 93 0 41 -4 72 -9 69 -5 -3 -6 1 -3 9 3 8 0 18 -5 22 -6 3 -9 10 -6 15 3 4
-6 11 -20 14 -14 4 -25 11 -25 16 0 6 -7 10 -15 10 -14 0 -19 12 -16 33 0 4
-3 7 -7 7 -7 0 -12 24 -15 68 0 6 -3 12 -7 12 -3 0 -6 8 -7 18 -2 46 -8 82
-13 82 -3 0 -7 8 -8 18 -4 34 -8 52 -15 58 -12 12 -8 41 7 54 13 10 30 13 104
19 9 1 11 8 7 22 -4 12 -8 31 -10 44 -1 13 -12 42 -23 64 -12 23 -18 41 -14
41 4 0 -1 5 -10 11 -10 5 -18 17 -18 24 0 8 -4 15 -10 15 -5 0 -10 6 -10 13 0
8 -9 24 -20 37 -11 13 -20 27 -20 32 0 4 -3 7 -7 6 -14 -5 -103 77 -103 94 0
10 89 6 108 -6 4 -2 14 -1 21 3 7 5 28 5 46 1 29 -6 38 -3 67 22 18 16 26 26
18 22 -8 -4 -4 3 9 16 27 26 51 80 51 112 0 42 -3 58 -12 58 -5 0 -7 4 -4 9 3
5 -1 11 -9 15 -15 5 -21 47 -8 60 11 11 15 56 4 56 -5 0 -8 8 -6 18 1 9 -2 25
-7 36 -7 12 -7 16 0 12 7 -4 10 4 8 20 -2 14 -9 30 -17 35 -8 5 -9 9 -4 9 6 0
1 7 -9 15 -11 8 -16 15 -12 15 4 0 -1 12 -12 28 -11 15 -25 43 -32 63 -7 20
-30 55 -51 78 -21 23 -36 47 -33 54 12 33 -55 137 -148 230 -26 26 -48 51 -48
56 0 10 -45 31 -67 31 -16 0 -73 53 -73 67 0 11 -92 73 -108 73 -6 0 -12 4
-12 10 0 5 -3 9 -7 8 -5 -2 -23 8 -41 22 -19 14 -37 26 -40 26 -25 5 -52 18
-52 24 0 12 -77 29 -88 18 -5 -5 -18 1 -33 15 -44 42 -165 97 -215 97 -30 0
-51 6 -65 18 -33 31 -207 84 -256 79 -31 -4 -43 -2 -43 8 0 21 -70 48 -130 50
-31 1 -61 4 -66 8 -6 3 -57 7 -114 8 -96 1 -135 10 -152 33 -3 5 -21 11 -40
13 -18 1 -46 5 -63 9 -56 10 -120 12 -145 5z"/>
</g>
</svg>
